<svg xmlns="http://www.w3.org/2000/svg" width="240" height="240" fill="none" viewBox="0 0 240 240">
  <g clip-path="url(#a)">
    <mask id="b" width="240" height="240" x="0" y="0" maskUnits="userSpaceOnUse" style="mask-type:luminance">
      <path fill="#fff" d="M240 0H0v240h240V0Z"/>
    </mask>
    <g mask="url(#b)">
      <path fill="#C2E7FF" d="M144.201 152.623H93.6411v50.462h50.5599v-50.462Z"/>
      <path fill="#C2E7FF" fill-rule="evenodd" d="M93.1411 152.623c0-.277.224-.5.5-.5h50.5599c.276 0 .5.223.5.5v50.462c0 .276-.224.5-.5.5H93.6411c-.276 0-.5-.224-.5-.5v-50.462Zm1 .5v49.462h49.5599v-49.462H94.1411Z" clip-rule="evenodd"/>
      <path fill="#C2E7FF" d="M93.638 102.062H43.0781v50.56H93.638v-50.56Z"/>
      <path fill="#C2E7FF" fill-rule="evenodd" d="M42.5835 102.062c0-.276.2239-.5.5-.5h50.56c.276 0 .5.224.5.5v50.56c0 .276-.224.5-.5.5h-50.56c-.2761 0-.5-.224-.5-.5v-50.56Zm1 .5v49.56h49.56v-49.56h-49.56Z" clip-rule="evenodd"/>
      <path fill="#F9DEDC" d="M144.201 51.405H93.6411v50.56h50.5599v-50.56Z"/>
      <path fill="#F9DEDC" fill-rule="evenodd" d="M93.1411 51.4043c0-.2762.224-.5.5-.5h50.5599c.276 0 .5.2238.5.5v50.5597c0 .277-.224.5-.5.5H93.6411c-.276 0-.5-.223-.5-.5V51.4043Zm1 .5v49.5597h49.5599V51.9043H94.1411Z" clip-rule="evenodd"/>
      <path fill="#C2E7FF" d="M227.31 201.799c8.398-8.398 8.398-22.014 0-30.412s-22.014-8.398-30.412 0L178.4 189.885c-8.398 8.398-8.398 22.014 0 30.412s22.014 8.398 30.412 0l18.498-18.498Z"/>
      <path fill="#C2E7FF" fill-rule="evenodd" d="M226.957 171.741c-8.203-8.203-21.502-8.203-29.705 0l-18.498 18.498c-8.203 8.202-8.203 21.502 0 29.704 8.203 8.203 21.502 8.203 29.705 0l18.498-18.498c8.202-8.202 8.202-21.502 0-29.704Zm-30.412-.708c8.593-8.593 22.526-8.593 31.118 0 8.594 8.594 8.594 22.526 0 31.12l-18.497 18.498c-8.593 8.592-22.526 8.592-31.119 0-8.594-8.594-8.594-22.526 0-31.12l18.498-18.498Z" clip-rule="evenodd"/>
      <path fill="#1F1F1F" fill-rule="evenodd" d="M226.959 171.033c.195-.195.512-.195.706 0 8.558 8.558 8.558 22.561 0 31.118l-9.582 9.582c-.195.196-.512.196-.707 0-.195-.194-.195-.511 0-.706l9.583-9.583c8.166-8.167 8.166-21.537 0-29.704-.196-.195-.196-.511 0-.707ZM42.5835 51.4043c0-.2762.2239-.5.5-.5H194.763c.276 0 .5.2238.5.5V203.084c0 .277-.224.5-.5.5H43.0835c-.2761 0-.5-.223-.5-.5V51.4043Zm1 .5V202.584H194.263V51.9043H43.5835Z" clip-rule="evenodd"/>
      <path fill="#4C8DF6" d="M72.8458 114.971c0-2.448-1.9853-4.433-4.4333-4.433-2.4486 0-4.4335 1.985-4.4335 4.433v12.869c0 2.449 1.9849 4.433 4.4335 4.433 2.448 0 4.4333-1.984 4.4333-4.433v-12.869Z"/>
      <path fill="#1F1F1F" fill-rule="evenodd" d="M68.413 111.038c-2.1725 0-3.9335 1.761-3.9335 3.933v12.869c0 2.172 1.761 3.933 3.9335 3.933 2.172 0 3.9333-1.761 3.9333-3.933v-12.869c0-2.172-1.7613-3.933-3.9333-3.933Zm-4.9335 3.933c0-2.724 2.2087-4.933 4.9335-4.933 2.7246 0 4.9333 2.209 4.9333 4.933v12.869c0 2.725-2.2087 4.933-4.9333 4.933-2.7248 0-4.9335-2.208-4.9335-4.933v-12.869Z" clip-rule="evenodd"/>
      <path fill="#4C8DF6" d="M68.4095 144.56c2.4413 0 4.42-1.979 4.42-4.42s-1.9787-4.42-4.42-4.42c-2.4409 0-4.4198 1.979-4.4198 4.42s1.9789 4.42 4.4198 4.42Z"/>
      <path fill="#1F1F1F" fill-rule="evenodd" d="M68.4095 136.221c-2.1648 0-3.9198 1.755-3.9198 3.92 0 2.164 1.755 3.92 3.9198 3.92 2.1653 0 3.92-1.756 3.92-3.92 0-2.165-1.7547-3.92-3.92-3.92Zm-4.9198 3.92c0-2.718 2.2028-4.92 4.9198-4.92 2.7173 0 4.92 2.202 4.92 4.92 0 2.717-2.2027 4.92-4.92 4.92-2.717 0-4.9198-2.203-4.9198-4.92Z" clip-rule="evenodd"/>
      <path fill="#FF8B69" d="M144.201 101.964H93.6411v50.56h50.5599v-50.56Z"/>
      <path fill="#1F1F1F" fill-rule="evenodd" d="M93.1411 101.964c0-.276.224-.5.5-.5h50.5599c.276 0 .5.224.5.5v50.56c0 .277-.224.5-.5.5H93.6411c-.276 0-.5-.223-.5-.5v-50.56Zm1 .5v49.56h49.5599v-49.56H94.1411ZM68.265 33.1376c-.3846-.3195-.3846-.3197-.3846-.32l.0006-.0009.0027-.0029.0087-.0104c.0073-.0088.0186-.0217.0326-.0384.0287-.0334.0707-.0822.126-.1451.11-.1259.2734-.3085.4874-.5389.4286-.4606 1.062-1.1122 1.884-1.8819 1.6433-1.5388 4.0473-3.5529 7.09-5.4565 6.084-3.8058 14.756-7.1879 25.0226-5.3998 10.331 1.7998 16.863 7.4302 20.804 12.604 1.969 2.5851 3.293 5.0574 4.125 6.8851.338.7401.594 1.3752.781 1.8701.119-.228.259-.4867.419-.7712.64-1.1382 1.61-2.6937 2.93-4.368 2.636-3.3446 6.694-7.1913 12.348-9.1076.262-.0887.546.0514.634.313.089.2615-.052.5454-.313.634-5.407 1.8326-9.317 5.5236-11.884 8.7797-1.282 1.6259-2.223 3.1364-2.843 4.2391-.31.551-.54.9996-.691 1.3088-.075.1546-.131.2744-.168.3546-.013.0277-.023.0507-.031.0688-.004.0081-.007.0152-.01.0214-.004.0098-.008.0172-.01.0218l-.002.0056s0 .0001 0 0c-.084.1939-.28.3146-.491.3012-.211-.0133-.39-.1576-.449-.3604v-.0019l-.002-.0083c-.002-.003-.003-.0069-.004-.0114-.002-.0067-.004-.015-.008-.0249-.01-.0328-.025-.0827-.046-.1487-.043-.1321-.108-.3284-.2-.5807-.182-.5048-.466-1.2335-.87-2.1205-.808-1.7749-2.096-4.1798-4.01-6.6936-3.828-5.0239-10.154-10.478-20.18-12.2248-9.945-1.732-18.3656 1.537-24.321 5.2624-2.9766 1.862-5.3293 3.8334-6.9373 5.3387-.804.7524-1.4207 1.3875-1.8347 1.8331-.2073.2228-.364.3981-.4686.517-.052.0594-.0907.1047-.1167.1347-.0127.015-.022.0262-.028.0335l-.0067.0078-.0013.0017" clip-rule="evenodd"/>
      <path fill="#F9DEDC" d="M208.865 135.571c11.02 0 19.953-8.933 19.953-19.953s-8.933-19.9534-19.953-19.9534-19.953 8.9334-19.953 19.9534c0 11.02 8.933 19.953 19.953 19.953Z"/>
      <path fill="#F9DEDC" fill-rule="evenodd" d="M208.865 96.1647c-10.743 0-19.453 8.7093-19.453 19.4533 0 10.744 8.71 19.453 19.453 19.453 10.744 0 19.453-8.709 19.453-19.453s-8.709-19.4533-19.453-19.4533Zm-20.453 19.4533c0-11.296 9.157-20.4533 20.453-20.4533s20.453 9.1573 20.453 20.4533-9.157 20.453-20.453 20.453-20.453-9.157-20.453-20.453Z" clip-rule="evenodd"/>
      <path fill="#1F1F1F" fill-rule="evenodd" d="M208.865 96.1647c-10.744 0-19.453 8.7093-19.453 19.4533 0 .276-.224.5-.5.5s-.5-.224-.5-.5c0-11.296 9.157-20.4533 20.453-20.4533 5.647 0 10.761 2.29 14.463 5.9903.195.196.195.512 0 .708-.196.195-.512.195-.708 0-3.521-3.5216-8.384-5.6983-13.755-5.6983ZM179.6 21.22c-4.868 0-8.813 3.9459-8.813 8.8134 0 4.8674 3.945 8.8133 8.813 8.8133 4.867 0 8.813-3.9459 8.813-8.8133 0-4.8675-3.946-8.8134-8.813-8.8134Zm-9.813 8.8134c0-5.4198 4.393-9.8134 9.813-9.8134 5.419 0 9.813 4.3936 9.813 9.8134 0 5.4197-4.394 9.8133-9.813 9.8133-5.42 0-9.813-4.3936-9.813-9.8133Z" clip-rule="evenodd"/>
      <path fill="#6DD58C" d="M19.2559 83.7847v-39.818c0-9.62 10.8822-15.2088 18.7-9.6066L65.7381 54.269c6.5779 4.7133 6.5779 14.4977 0 19.2111L37.9559 93.3887c-7.82 5.6047-18.7.016-18.7-9.6066v.0026Z"/>
      <path fill="#6DD58C" fill-rule="evenodd" d="M37.6642 34.766c-7.487-5.365-17.9088-.0127-17.9088 9.2003V83.782c0 9.2154 10.4196 14.5674 17.9087 9.2l27.7823-19.9086c6.2991-4.514 6.2991-13.8846 0-18.3984L37.6642 34.766ZM18.7554 83.784V43.9663c0-10.027 11.3426-15.8524 19.4912-10.0131l27.7822 19.9089c6.856 4.9128 6.856 15.1113 0 20.0239L38.2466 93.7947c-8.1502 5.8413-19.4892.0167-19.4912-10.0107Z" clip-rule="evenodd"/>
      <path fill="#1F1F1F" fill-rule="evenodd" d="M37.6641 34.7641c-7.4869-5.3651-17.9087-.0127-17.9087 9.2003v29.3863c0 .2767-.2239.5-.5.5-.2762 0-.5-.2233-.5-.5V43.9644c0-10.027 11.3426-15.8524 19.4912-10.0132l6.0312 4.3223c.2244.1609.276.4732.1151.6977-.1609.2244-.4732.276-.6977.1151l-6.0311-4.3222Z" clip-rule="evenodd"/>
      <path fill="#FFDF99" d="M64.0526 163.605 53.9677 173.69c-2.3267 2.327-2.3267 6.099 0 8.426l10.0849 10.085c2.3267 2.326 6.0991 2.326 8.4257 0l10.0847-10.085c2.3267-2.327 2.3267-6.099 0-8.426l-10.0847-10.085c-2.3266-2.326-6.0991-2.326-8.4257 0Z"/>
      <path fill="#FFDF99" fill-rule="evenodd" d="M54.3154 174.044c-2.1314 2.131-2.1314 5.587 0 7.718l10.0848 10.085c2.1314 2.132 5.5874 2.132 7.7187 0l10.0847-10.085c2.1313-2.131 2.1313-5.587 0-7.718l-10.0847-10.085c-2.1313-2.132-5.5873-2.132-7.7187 0l-10.0848 10.085Zm-.7072 8.425c-2.5219-2.522-2.5219-6.61 0-9.132l10.085-10.085c2.5219-2.522 6.611-2.522 9.1324 0l10.0853 10.085c2.522 2.522 2.522 6.61 0 9.132l-10.0853 10.085c-2.5214 2.522-6.6105 2.522-9.1324 0l-10.085-10.085Z" clip-rule="evenodd"/>
      <path fill="#1F1F1F" fill-rule="evenodd" d="M76.7051 167.835c.1954-.195.5114-.195.7067 0l5.5 5.5c2.522 2.522 2.522 6.612 0 9.134l-10.084 10.084c-2.522 2.522-6.6121 2.522-9.134 0-.1953-.195-.1953-.512 0-.706.1953-.196.5118-.196.7071 0 2.1314 2.131 5.5882 2.131 7.7196 0l10.0846-10.085c2.1314-2.131 2.1314-5.588 0-7.719l-5.5-5.5c-.1953-.196-.1953-.512 0-.708Z" clip-rule="evenodd"/>
      <path fill="#1EA446" d="M34.7332 221.924c3.5284 0 6.3888-2.86 6.3888-6.389 0-3.528-2.8604-6.388-6.3888-6.388-3.5286 0-6.389 2.86-6.389 6.388 0 3.529 2.8604 6.389 6.389 6.389Z"/>
      <path fill="#1F1F1F" fill-rule="evenodd" d="M34.7327 209.647c-3.2524 0-5.889 2.636-5.889 5.888 0 3.253 2.6366 5.889 5.889 5.889 3.2523 0 5.8889-2.636 5.8889-5.889 0-3.252-2.6366-5.888-5.8889-5.888Zm-6.8889 5.888c0-3.804 3.0842-6.888 6.8889-6.888 3.8046 0 6.8889 3.084 6.8889 6.888 0 3.805-3.0843 6.889-6.8889 6.889-3.8047 0-6.8889-3.084-6.8889-6.889Z" clip-rule="evenodd"/>
      <path fill="#fff" d="m164.355 163.284-11.262 23.207c-2.42 4.988 2.318 10.446 7.598 8.746l6.422-2.755c1.32-.425 2.745-.403 4.051.064l6.722 3.1c5.162 1.845 10.056-3.327 7.925-8.38l-9.985-23.68c-2.104-4.991-9.108-5.175-11.473-.302h.002Z"/>
      <path fill="#1F1F1F" fill-rule="evenodd" d="M163.905 163.067c2.552-5.26 10.112-5.062 12.383.326l9.985 23.68c2.3 5.454-2.981 11.036-8.553 9.045-.014-.005-.028-.011-.042-.017l-6.701-3.09c-1.19-.42-2.485-.441-3.687-.06l-6.4 2.746c-.015.007-.03.012-.044.017-5.7 1.835-10.813-4.057-8.202-9.441l11.243-23.166c.005-.014.011-.027.018-.04Zm.919.396c-.006.014-.011.027-.018.04l-11.262 23.206c-2.224 4.587 2.121 9.603 6.973 8.06l6.401-2.746c.014-.006.028-.012.044-.016 1.424-.458 2.962-.434 4.372.069.014.005.028.011.041.017l6.701 3.09c4.746 1.678 9.235-3.076 7.276-7.722l-9.985-23.68c-1.931-4.582-8.348-4.764-10.543-.318Z" clip-rule="evenodd"/>
      <path fill="#fff" d="M128.548 94.4227h-22.351c-2.858 0-5.176-2.318-5.176-5.176V66.8961c0-4.6115 5.576-6.9204 8.836-3.6604l22.351 22.351c3.26 3.26.951 8.836-3.66 8.836Z"/>
      <path fill="#1F1F1F" fill-rule="evenodd" d="M109.508 63.589c-2.945-2.9451-7.982-.8592-7.982 3.3064v22.3513c0 2.5813 2.094 4.6753 4.676 4.6753h22.351c4.165 0 6.251-5.0366 3.307-7.982l-22.352-22.351Zm-8.982 3.3064c0-5.0566 6.114-7.5885 9.69-4.0136l22.35 22.3509c3.576 3.5753 1.044 9.6893-4.013 9.6893h-22.351c-3.134 0-5.676-2.5413-5.676-5.6753V66.8954Z" clip-rule="evenodd"/>
      <path fill="#fff" d="m125.142 127.342 9.174-9.173c1.718-1.718 1.718-4.5 0-6.218s-4.5-1.718-6.218 0l-9.174 9.174-9.173-9.174c-1.717-1.718-4.5-1.718-6.217 0-1.718 1.718-1.718 4.5 0 6.218l9.173 9.173-9.173 9.173c-1.718 1.718-1.718 4.5 0 6.218 1.717 1.718 4.5 1.718 6.217 0l9.173-9.173 9.174 9.173c1.718 1.718 4.5 1.718 6.218 0s1.718-4.5 0-6.218l-9.174-9.173Z"/>
      <path fill="#1F1F1F" fill-rule="evenodd" d="M103.175 111.597c1.912-1.912 5.011-1.912 6.924 0l8.82 8.82 8.82-8.82c1.913-1.912 5.012-1.912 6.925 0 1.913 1.914 1.913 5.012 0 6.926l-8.82 8.819 8.82 8.82c1.913 1.913 1.913 5.012 0 6.925-1.913 1.913-5.012 1.913-6.925 0l-8.82-8.82-8.82 8.82c-1.913 1.913-5.012 1.913-6.924 0-1.914-1.913-1.914-5.012 0-6.925l8.819-8.82-8.819-8.819c-1.914-1.914-1.914-5.012 0-6.926Zm6.217.708c-1.523-1.523-3.988-1.523-5.511 0-1.522 1.522-1.522 3.988 0 5.51l9.174 9.174c.094.094.146.22.146.353 0 .133-.052.26-.146.354l-9.174 9.173c-1.522 1.522-1.522 3.988 0 5.511 1.523 1.522 3.988 1.522 5.511 0l9.173-9.173c.196-.196.512-.196.708 0l9.173 9.173c1.523 1.522 3.988 1.522 5.511 0 1.522-1.523 1.522-3.989 0-5.511l-9.174-9.173c-.195-.195-.195-.512 0-.707l9.174-9.174c1.522-1.522 1.522-3.988 0-5.51-1.523-1.523-3.988-1.523-5.511 0l-9.173 9.173c-.094.094-.222.147-.354.147-.132 0-.26-.053-.354-.147l-9.173-9.173Z" clip-rule="evenodd"/>
      <path fill="#fff" d="M5.44287 165.44c7.72003 2.595 13.81113 8.731 16.35113 16.475 2.54-7.744 8.6311-13.88 16.3511-16.475-7.72-2.596-13.8111-8.731-16.3511-16.476-2.54 7.745-8.6311 13.88-16.35113 16.476Z"/>
      <path fill="#1F1F1F" fill-rule="evenodd" d="M21.794 148.464c.2161 0 .4078.139.4751.345 2.4908 7.594 8.4649 13.612 16.0353 16.157.2036.068.3407.259.3407.474 0 .215-.1371.405-.3407.474-7.5704 2.545-13.5445 8.563-16.0353 16.157-.0673.206-.259.344-.4751.344-.2161 0-.4078-.138-.4751-.344-2.4909-7.594-8.4649-13.612-16.03537-16.157-.20354-.069-.34066-.259-.34066-.474 0-.215.13712-.406.34066-.474 7.57047-2.545 13.54447-8.563 16.03537-16.157.0673-.206.259-.345.4751-.345ZM6.89783 165.44c6.81697 2.699 12.23877 8.155 14.89617 14.993 2.6573-6.838 8.0792-12.294 14.8962-14.993-6.817-2.699-12.2389-8.156-14.8962-14.993-2.6574 6.837-8.0792 12.294-14.89617 14.993Z" clip-rule="evenodd"/>
      <path fill="#FFBB29" d="M150.474 77.338c8.933 3.0047 15.985 10.1047 18.922 19.0667 2.938-8.964 9.989-16.064 18.923-19.0667-8.934-3.004-15.985-10.104-18.923-19.0665-2.937 8.9645-9.989 16.0645-18.922 19.0665Z"/>
      <path fill="#FFBB29" fill-rule="evenodd" d="M169.391 57.7715c.216 0 .408.1388.475.3442 2.889 8.8123 9.823 15.7943 18.607 18.7483.203.0687.34.2593.34.474s-.137.406-.34.474c-8.784 2.952-15.718 9.934-18.607 18.7487-.067.2053-.259.344-.475.344-.216 0-.408-.1387-.475-.344-2.889-8.812-9.823-15.7947-18.607-18.7487-.203-.0687-.34-.2593-.34-.474s.137-.4053.34-.474c8.784-2.952 15.718-9.934 18.607-18.7482.067-.2054.259-.3443.475-.3443Zm0 1.9978c-3.063 8.0454-9.435 14.456-17.454 17.5687 8.019 3.1147 14.391 9.526 17.454 17.5693 3.063-8.0453 9.435-14.4566 17.454-17.5693-8.019-3.1147-14.391-9.5253-17.454-17.5687Z" clip-rule="evenodd"/>
      <path fill="#1F1F1F" fill-rule="evenodd" d="M171.652 63.442c.239-.138.544-.0559.682.1833 3.56 6.1714 9.291 10.9334 16.147 13.2381.261.088.403.3713.315.6333-.088.262-.372.4027-.634.3147-7.09-2.384-13.014-7.3067-16.694-13.6864-.138-.2392-.056-.545.184-.683ZM144.204 55.8912c.276 0 .5.2239.5.5V203.085c0 .276-.224.5-.5.5-.277 0-.5-.224-.5-.5V56.3912c0-.2761.223-.5.5-.5ZM93.6411 50.9043c.276 0 .5.2238.5.5V203.084c0 .277-.224.5-.5.5s-.5-.223-.5-.5V51.4043c0-.2762.224-.5.5-.5Z" clip-rule="evenodd"/>
      <path fill="#1F1F1F" fill-rule="evenodd" d="M42.5835 101.964c0-.276.2239-.5.5-.5H186.421c.276 0 .5.224.5.5 0 .277-.224.5-.5.5H43.0835c-.2761 0-.5-.223-.5-.5ZM46.5264 152.623c0-.277.2238-.5.5-.5H194.664c.276 0 .5.223.5.5 0 .276-.224.5-.5.5H47.0264c-.2762 0-.5-.224-.5-.5Z" clip-rule="evenodd"/>
    </g>
  </g>
  <defs>
    <clipPath id="a">
      <path fill="#fff" d="M0 0h240v240H0z"/>
    </clipPath>
  </defs>
</svg>
